<svg width="30" height="30" viewBox="0 0 30 30" fill="none" xmlns="http://www.w3.org/2000/svg">
<path fill-rule="evenodd" clip-rule="evenodd" d="M27.235 27.235C27.4043 27.0655 27.4994 26.8358 27.4994 26.5963C27.4994 26.3567 27.4043 26.127 27.235 25.9575L22.6525 21.375C24.5722 19.1252 25.5466 16.2198 25.3714 13.2675C25.1963 10.3152 23.8853 7.54528 21.7131 5.53824C19.5409 3.53121 16.6761 2.44285 13.7192 2.50126C10.7623 2.55967 7.9428 3.76031 5.85156 5.85156C3.76031 7.9428 2.55967 10.7623 2.50126 13.7192C2.44285 16.6761 3.53121 19.5409 5.53824 21.7131C7.54528 23.8853 10.3152 25.1963 13.2675 25.3714C16.2198 25.5466 19.1252 24.5722 21.375 22.6525L25.9575 27.235C26.127 27.4043 26.3567 27.4994 26.5963 27.4994C26.8358 27.4994 27.0655 27.4043 27.235 27.235Z" fill="#0B111F"/>
</svg>
