<svg width="30" height="30" viewBox="0 0 30 30" fill="none" xmlns="http://www.w3.org/2000/svg">
<path fill-rule="evenodd" clip-rule="evenodd" d="M27.5 15C27.5 21.9037 21.9037 27.5 15 27.5C8.09625 27.5 2.5 21.9037 2.5 15C2.5 8.09625 8.09625 2.5 15 2.5C21.9037 2.5 27.5 8.09625 27.5 15ZM18.75 11.25C18.75 12.2446 18.3549 13.1984 17.6517 13.9017C16.9484 14.6049 15.9946 15 15 15C14.0054 15 13.0516 14.6049 12.3483 13.9017C11.6451 13.1984 11.25 12.2446 11.25 11.25C11.25 10.2554 11.6451 9.30161 12.3483 8.59835C13.0516 7.89509 14.0054 7.5 15 7.5C15.9946 7.5 16.9484 7.89509 17.6517 8.59835C18.3549 9.30161 18.75 10.2554 18.75 11.25ZM15 25.625C17.1453 25.6284 19.241 24.9793 21.0087 23.7638C21.7637 23.245 22.0862 22.2575 21.6462 21.4538C20.7375 19.7875 18.8625 18.75 15 18.75C11.1375 18.75 9.2625 19.7875 8.3525 21.4538C7.91375 22.2575 8.23625 23.245 8.99125 23.7638C10.759 24.9793 12.8547 25.6284 15 25.625Z" fill="#AFAFAF"/>
</svg>
