<svg width="30" height="30" viewBox="0 0 30 30" fill="none" xmlns="http://www.w3.org/2000/svg">
<path fill-rule="evenodd" clip-rule="evenodd" d="M3.15 9.77875C2.5 10.9625 2.5 12.3938 2.5 15.2537V17.1562C2.5 22.0312 2.5 24.47 3.965 25.985C5.43 27.5 7.78625 27.5 12.5 27.5H17.5C22.2137 27.5 24.5712 27.5 26.035 25.985C27.4987 24.47 27.5 22.0325 27.5 17.1562V15.255C27.5 12.3938 27.5 10.9637 26.85 9.77875C26.2025 8.5925 25.0162 7.8575 22.645 6.385L20.145 4.83375C17.6387 3.2775 16.385 2.5 15 2.5C13.615 2.5 12.3625 3.2775 9.855 4.83375L7.355 6.385C4.98375 7.8575 3.79875 8.5925 3.15 9.77875ZM11.8075 19.2475C11.7089 19.1708 11.596 19.1146 11.4754 19.0821C11.3548 19.0496 11.2289 19.0416 11.1052 19.0585C10.9814 19.0753 10.8623 19.1167 10.7548 19.1803C10.6473 19.2438 10.5535 19.3282 10.4791 19.4285C10.4046 19.5288 10.3509 19.6429 10.3212 19.7642C10.2915 19.8855 10.2863 20.0115 10.3059 20.1349C10.3256 20.2582 10.3697 20.3764 10.4356 20.4825C10.5016 20.5885 10.5881 20.6803 10.69 20.7525C11.9346 21.6826 13.4463 22.1859 15 22.1875C16.5533 22.1856 18.0645 21.6823 19.3088 20.7525C19.4107 20.6803 19.4972 20.5885 19.5631 20.4825C19.6291 20.3764 19.6732 20.2582 19.6928 20.1349C19.7125 20.0115 19.7073 19.8855 19.6776 19.7642C19.6478 19.6429 19.5942 19.5288 19.5197 19.4285C19.4452 19.3282 19.3515 19.2438 19.244 19.1803C19.1364 19.1167 19.0173 19.0753 18.8936 19.0585C18.7698 19.0416 18.6439 19.0496 18.5233 19.0821C18.4027 19.1146 18.2898 19.1708 18.1913 19.2475C17.2701 19.9372 16.1507 20.3108 15 20.3125C13.8493 20.3108 12.7286 19.9372 11.8075 19.2475Z" fill="#0B111F"/>
</svg>
