<svg width="30" height="30" viewBox="0 0 30 30" fill="none" xmlns="http://www.w3.org/2000/svg">
<path d="M9.6875 3.125C9.6875 2.87636 9.58873 2.6379 9.41292 2.46209C9.2371 2.28627 8.99865 2.1875 8.75 2.1875C8.50136 2.1875 8.26291 2.28627 8.08709 2.46209C7.91128 2.6379 7.8125 2.87636 7.8125 3.125V5.1C6.0125 5.24375 4.8325 5.59625 3.965 6.465C3.09625 7.3325 2.74375 8.51375 2.59875 10.3125H27.4013C27.2563 8.5125 26.9038 7.3325 26.035 6.465C25.1675 5.59625 23.9863 5.24375 22.1875 5.09875V3.125C22.1875 2.87636 22.0887 2.6379 21.9129 2.46209C21.7371 2.28627 21.4986 2.1875 21.25 2.1875C21.0014 2.1875 20.7629 2.28627 20.5871 2.46209C20.4113 2.6379 20.3125 2.87636 20.3125 3.125V5.01625C19.4813 5 18.5488 5 17.5 5H12.5C11.4513 5 10.5188 5 9.6875 5.01625V3.125Z" fill="#AFAFAF"/>
<path fill-rule="evenodd" clip-rule="evenodd" d="M27.5 15V17.5C27.5 22.2137 27.5 24.5712 26.035 26.035C24.57 27.4987 22.2137 27.5 17.5 27.5H12.5C7.78625 27.5 5.42875 27.5 3.965 26.035C2.50125 24.57 2.5 22.2137 2.5 17.5V15C2.5 13.9513 2.5 13.0188 2.51625 12.1875H27.4837C27.5 13.0188 27.5 13.9513 27.5 15ZM20.625 22.5C21.1223 22.5 21.5992 22.3025 21.9508 21.9508C22.3025 21.5992 22.5 21.1223 22.5 20.625C22.5 20.1277 22.3025 19.6508 21.9508 19.2992C21.5992 18.9475 21.1223 18.75 20.625 18.75C20.1277 18.75 19.6508 18.9475 19.2992 19.2992C18.9475 19.6508 18.75 20.1277 18.75 20.625C18.75 21.1223 18.9475 21.5992 19.2992 21.9508C19.6508 22.3025 20.1277 22.5 20.625 22.5Z" fill="#AFAFAF"/>
</svg>
